<svg xmlns="http://www.w3.org/2000/svg" width="1000" height="280" viewBox="0 0 1000 280" font-family="Segoe UI, Helvetica, Arial, sans-serif">
  <defs>
    <linearGradient id="bg" x1="0" y1="0" x2="1" y2="1">
      <stop offset="0" stop-color="#0d1117"/>
      <stop offset="0.55" stop-color="#10161f"/>
      <stop offset="1" stop-color="#161b22"/>
    </linearGradient>
    <linearGradient id="grn" x1="0" y1="0" x2="1" y2="0">
      <stop offset="0" stop-color="#3fb950"/>
      <stop offset="1" stop-color="#2ea043"/>
    </linearGradient>
    <radialGradient id="glow" cx="0.5" cy="0.5" r="0.5">
      <stop offset="0" stop-color="#2ea043" stop-opacity="0.35"/>
      <stop offset="1" stop-color="#2ea043" stop-opacity="0"/>
    </radialGradient>
    <filter id="soft" x="-20%" y="-20%" width="140%" height="140%">
      <feGaussianBlur stdDeviation="6"/>
    </filter>
  </defs>

  <rect width="1000" height="280" fill="url(#bg)"/>
  <ellipse cx="180" cy="120" rx="260" ry="180" fill="url(#glow)"/>

  <!-- circuit accent lines -->
  <g stroke="#21404f" stroke-width="2" opacity="0.6" fill="none">
    <path d="M0 60 H120 L150 90 H260"/>
    <path d="M0 220 H90 L120 190 H240"/>
    <path d="M1000 50 H880 L850 80 H760"/>
    <path d="M1000 230 H900 L870 200 H780"/>
    <circle cx="260" cy="90" r="4" fill="#2ea043" stroke="none"/>
    <circle cx="240" cy="190" r="4" fill="#2ea043" stroke="none"/>
    <circle cx="760" cy="80" r="4" fill="#2ea043" stroke="none"/>
    <circle cx="780" cy="200" r="4" fill="#2ea043" stroke="none"/>
  </g>

  <!-- shark fin mark -->
  <g transform="translate(95,150)">
    <path d="M0 40 C20 -30 70 -45 95 30 C70 18 45 22 30 40 Z" fill="url(#grn)" filter="url(#soft)" opacity="0.5"/>
    <path d="M0 40 C20 -30 70 -45 95 30 C70 18 45 22 30 40 Z" fill="url(#grn)"/>
    <path d="M-8 44 q60 18 120 0 q-15 14 -40 16 q-30 -2 -80 -16 Z" fill="#1f6feb" opacity="0.85"/>
  </g>

  <!-- title -->
  <text x="230" y="120" font-size="62" font-weight="800" fill="#e6edf3" letter-spacing="1">BRUCE</text>
  <text x="232" y="168" font-size="30" font-weight="700" fill="url(#grn)" letter-spacing="6">DIY  FLIPPER</text>
  <text x="234" y="205" font-size="18" font-weight="500" fill="#8b949e" letter-spacing="2">ESP32-S3 N16R8  ·  Red Team Multitool</text>

  <!-- module chips -->
  <g font-size="14" font-weight="600">
    <g transform="translate(234,230)">
      <rect width="78" height="26" rx="13" fill="#161b22" stroke="#2ea043" stroke-opacity="0.5"/>
      <text x="39" y="18" text-anchor="middle" fill="#3fb950">Sub-GHz</text>
    </g>
    <g transform="translate(322,230)">
      <rect width="56" height="26" rx="13" fill="#161b22" stroke="#2ea043" stroke-opacity="0.5"/>
      <text x="28" y="18" text-anchor="middle" fill="#3fb950">NFC</text>
    </g>
    <g transform="translate(388,230)">
      <rect width="50" height="26" rx="13" fill="#161b22" stroke="#2ea043" stroke-opacity="0.5"/>
      <text x="25" y="18" text-anchor="middle" fill="#3fb950">IR</text>
    </g>
    <g transform="translate(448,230)">
      <rect width="64" height="26" rx="13" fill="#161b22" stroke="#2ea043" stroke-opacity="0.5"/>
      <text x="32" y="18" text-anchor="middle" fill="#3fb950">NRF24</text>
    </g>
    <g transform="translate(522,230)">
      <rect width="66" height="26" rx="13" fill="#161b22" stroke="#2ea043" stroke-opacity="0.5"/>
      <text x="33" y="18" text-anchor="middle" fill="#3fb950">Si5351</text>
    </g>
    <g transform="translate(598,230)">
      <rect width="60" height="26" rx="13" fill="#161b22" stroke="#2ea043" stroke-opacity="0.5"/>
      <text x="30" y="18" text-anchor="middle" fill="#3fb950">WiFi</text>
    </g>
    <g transform="translate(668,230)">
      <rect width="54" height="26" rx="13" fill="#161b22" stroke="#2ea043" stroke-opacity="0.5"/>
      <text x="27" y="18" text-anchor="middle" fill="#3fb950">BLE</text>
    </g>
    <g transform="translate(732,230)">
      <rect width="84" height="26" rx="13" fill="#161b22" stroke="#2ea043" stroke-opacity="0.5"/>
      <text x="42" y="18" text-anchor="middle" fill="#3fb950">Bad USB</text>
    </g>
  </g>
</svg>
